<?xml version="1.0" standalone="no"?><!DOCTYPE svg PUBLIC "-//W3C//DTD SVG 1.1//EN" "http://www.w3.org/Graphics/SVG/1.1/DTD/svg11.dtd"><svg t="1699337693401" class="icon" viewBox="0 0 1024 1024" version="1.1" xmlns="http://www.w3.org/2000/svg" p-id="3729" xmlns:xlink="http://www.w3.org/1999/xlink" width="200" height="200"><path d="M657.999348 1023.993117H365.909508A196.573105 196.573105 0 0 1 167.825593 833.966854a191.03347 191.03347 0 0 1 21.990672-92.159381 11.750741 11.750741 0 0 0-1.678677-12.757947 436.456083 436.456083 0 1 1 647.801547 0 11.918608 11.918608 0 0 0-1.846545 12.925815 191.03347 191.03347 0 0 1 21.990672 92.15938A196.573105 196.573105 0 0 1 657.999348 1023.993117zM511.954428 83.933862h-22.662143A356.551046 356.551046 0 0 0 159.432207 416.144088a350.675676 350.675676 0 0 0 90.480703 256.501883 95.85247 95.85247 0 0 1 13.597286 108.106814 107.099608 107.099608 0 0 0-12.254344 52.038995A112.303507 112.303507 0 0 0 365.909508 940.059255h292.08984a112.303507 112.303507 0 0 0 114.150052-107.435343 106.93174 106.93174 0 0 0-12.254344-51.871127 95.516735 95.516735 0 0 1 13.765154-108.106814A352.522221 352.522221 0 0 0 511.954428 83.933862z" fill="#2B2C37" p-id="3730"></path><path d="M516.151121 528.783331a41.966931 41.966931 0 0 1-29.376852-71.847386l102.902915-100.720634a41.966931 41.966931 0 1 1 58.585836 59.928777l-102.735047 100.720635a42.470534 42.470534 0 0 1-29.376852 11.918608z" fill="#2B2C37" opacity=".5" p-id="3731"></path><path d="M501.546629 528.783331a41.799063 41.799063 0 0 1-29.712587-12.254344l-109.114021-109.11402a41.966931 41.966931 0 0 1 59.257307-59.425175l109.11402 109.114021a41.966931 41.966931 0 0 1-29.544719 71.679518z" fill="#2B2C37" p-id="3732"></path><path d="M505.743322 679.864283a41.799063 41.799063 0 0 1-41.966931-41.966931v-151.080952a41.966931 41.966931 0 0 1 83.933862 0v151.080952a41.966931 41.966931 0 0 1-41.966931 41.966931z" fill="#2B2C37" p-id="3733"></path></svg>