<?xml version="1.0" standalone="no"?><!DOCTYPE svg PUBLIC "-//W3C//DTD SVG 1.1//EN" "http://www.w3.org/Graphics/SVG/1.1/DTD/svg11.dtd"><svg t="1698917882601" class="icon" viewBox="0 0 1024 1024" version="1.1" xmlns="http://www.w3.org/2000/svg" p-id="4205" xmlns:xlink="http://www.w3.org/1999/xlink" width="200" height="200"><path d="M512 469.333333c-46.933333 0-85.333333 38.4-85.333333 85.333333s38.4 85.333333 85.333333 85.333333 85.333333-38.4 85.333333-85.333333S558.933333 469.333333 512 469.333333zM768 554.666667c0-141.226667-114.773333-256-256-256s-256 114.773333-256 256c0 94.72 51.626667 177.066667 128 221.44l42.666667-74.24c-50.773333-29.866667-85.333333-84.053333-85.333333-147.2 0-94.293333 76.373333-170.666667 170.666667-170.666667s170.666667 76.373333 170.666667 170.666667c0 63.146667-34.56 117.333333-85.333333 147.2l42.666667 74.24C716.373333 731.733333 768 649.386667 768 554.666667zM512 128C276.48 128 85.333333 319.146667 85.333333 554.666667c0 157.866667 85.76 295.253333 212.906667 369.066667l42.666667-73.813333C239.36 790.613333 170.666667 680.96 170.666667 554.666667c0-188.586667 152.746667-341.333333 341.333333-341.333333s341.333333 152.746667 341.333333 341.333333c0 126.293333-68.693333 235.946667-170.666667 295.253333l42.666667 73.813333c127.573333-73.813333 213.333333-211.2 213.333333-369.066667C938.666667 319.146667 747.52 128 512 128z" fill="#d81e06" p-id="4206"></path></svg>