<?xml version="1.0" standalone="no"?><!DOCTYPE svg PUBLIC "-//W3C//DTD SVG 1.1//EN" "http://www.w3.org/Graphics/SVG/1.1/DTD/svg11.dtd"><svg t="1698917970168" class="icon" viewBox="0 0 1024 1024" version="1.1" xmlns="http://www.w3.org/2000/svg" p-id="7589" xmlns:xlink="http://www.w3.org/1999/xlink" width="200" height="200"><path d="M819.4 209.3c0-3.8-0.4-7.6-1-11.3-6.3-33.6-38.5-55.7-72.1-49.4L359.5 224c-29.3 5.5-50.5 31-50.5 60.7v349.8c-17.4-12-38.6-19.1-61.3-19.1-59.7 0-108.1 48.4-108.1 108.1 0 59.7 48.4 108.1 108.1 108.1 56.1 0 102.3-42.8 107.6-97.5h0.1v-0.6c0.3-3.3 0.5-6.6 0.5-10 0-3.4-0.2-6.7-0.5-10V406.8l417.6-84V573c-17.5-12.2-38.8-19.4-61.8-19.4-59.7 0-108.1 48.4-108.1 108.1 0 59.7 48.4 108.1 108.1 108.1 59.7 0 108.1-48.4 108.1-108.1V209.3z m-572 572.6c-32 0-58-26-58-58s26-58 58-58 58 26 58 58-26 58-58 58zM773 276.3l-417.6 84.1v-75.6c0-7.4 5.3-13.8 12.6-15.2l386.7-75.4c8.4-1.6 16.5 4 18 12.4 0.2 0.9 0.3 1.9 0.3 2.8v66.9z" fill="#a6abb4" p-id="7590"></path></svg>