<?xml version="1.0" standalone="no"?><!DOCTYPE svg PUBLIC "-//W3C//DTD SVG 1.1//EN" "http://www.w3.org/Graphics/SVG/1.1/DTD/svg11.dtd"><svg t="1699337753715" class="icon" viewBox="0 0 1024 1024" version="1.1" xmlns="http://www.w3.org/2000/svg" p-id="7340" xmlns:xlink="http://www.w3.org/1999/xlink" width="200" height="200"><path d="M700.928 109.824H323.072a85.333333 85.333333 0 0 0-73.557333 42.069333l-188.245334 320a85.333333 85.333333 0 0 0 0 86.528l188.245334 320a85.333333 85.333333 0 0 0 73.557333 42.069334h377.856a85.333333 85.333333 0 0 0 73.557333-42.069334l188.245334-320a85.333333 85.333333 0 0 0 0-86.528l-188.245334-320a85.333333 85.333333 0 0 0-73.557333-42.069333z m-377.856 85.333333h377.856l188.245333 320-188.245333 320H323.072l-188.245333-320 188.245333-320z" fill="#555656" p-id="7341"></path><path d="M512 365.824a149.333333 149.333333 0 1 0 0 298.666667 149.333333 149.333333 0 0 0 0-298.666667z m0 85.333333a64 64 0 1 1 0 128 64 64 0 0 1 0-128z" fill="#555656" p-id="7342"></path></svg>